<?xml version="1.0" encoding="UTF-8" standalone="no"?>
<!-- Created with Inkscape (http://www.inkscape.org/) -->

<svg
   width="256"
   height="256"
   viewBox="0 0 67.733332 67.733335"
   version="1.1"
   id="svg1082"
   inkscape:version="1.1.2 (0a00cf5339, 2022-02-04)"
   sodipodi:docname="icon.svg"
   inkscape:export-filename="/home/arnaud/Téléchargements/icon.png"
   inkscape:export-xdpi="96"
   inkscape:export-ydpi="96"
   xmlns:inkscape="http://www.inkscape.org/namespaces/inkscape"
   xmlns:sodipodi="http://sodipodi.sourceforge.net/DTD/sodipodi-0.dtd"
   xmlns="http://www.w3.org/2000/svg"
   xmlns:svg="http://www.w3.org/2000/svg">
  <sodipodi:namedview
     id="namedview1084"
     pagecolor="#ffffff"
     bordercolor="#666666"
     borderopacity="1.0"
     inkscape:pageshadow="2"
     inkscape:pageopacity="0.0"
     inkscape:pagecheckerboard="0"
     inkscape:document-units="mm"
     showgrid="false"
     units="px"
     width="793.70081px"
     showborder="true"
     inkscape:showpageshadow="false"
     inkscape:zoom="2.114039"
     inkscape:cx="-17.738556"
     inkscape:cy="181.64282"
     inkscape:window-width="2560"
     inkscape:window-height="1364"
     inkscape:window-x="0"
     inkscape:window-y="0"
     inkscape:window-maximized="1"
     inkscape:current-layer="layer1" />
  <defs
     id="defs1079">
    <rect
       x="18.117955"
       y="33.217785"
       width="219.36055"
       height="199.43479"
       id="rect5943" />
  </defs>
  <g
     inkscape:label="Calque 1"
     inkscape:groupmode="layer"
     id="layer1">
    <rect
       style="fill:#4f5b93;stroke:none;stroke-width:3.70417;stroke-linecap:round;stroke-linejoin:round;stroke-miterlimit:5.5;fill-opacity:1"
       id="rect1223"
       width="67.73333"
       height="67.73333"
       x="0"
       y="0" />
    <path
       d="m 33.866667,3.4395835 c -16.804443,0 -30.4270835,13.6226395 -30.4270835,30.4270835 0,16.804445 13.6226405,30.427083 30.4270835,30.427083 16.804444,0 30.427083,-13.622638 30.427083,-30.427083 0,-16.804444 -13.622639,-30.4270835 -30.427083,-30.4270835 z M 7.3393418,35.768422 h 6.5253062 c 0.145181,3.157338 0.622327,6.046048 1.363382,8.640299 H 9.4296211 C 8.2685475,41.727907 7.5563056,38.816719 7.3393418,35.768422 Z M 43.253112,31.965037 C 43.110043,28.908295 42.74765,26.012878 42.257091,23.324738 h 6.233453 c 0.829728,2.551404 1.399274,5.428441 1.571032,8.640299 z M 29.070365,44.408721 c -0.536758,-2.963599 -0.80017,-5.856407 -0.848977,-8.640299 h 11.290684 c -0.04868,2.783892 -0.312219,5.6767 -0.849103,8.640299 z m 8.763994,3.803386 c -0.8917,3.423108 -2.182429,6.912535 -3.968064,10.409539 -1.785387,-3.497004 -3.075867,-6.986431 -3.967443,-10.409539 z m -9.561184,-16.24707 c 0.150646,-3.074254 0.539368,-5.971161 1.055511,-8.640299 h 9.075964 c 0.516266,2.669138 0.904864,5.566045 1.055633,8.640299 z m 1.910201,-12.44356 c 1.188519,-4.639695 2.656967,-8.300384 3.683043,-10.554224 1.0262,2.25384 2.494773,5.914529 3.68354,10.554224 z m 11.267708,0 C 40.237727,14.493309 38.679735,10.454206 37.523258,7.8436867 38.960534,8.8664095 43.735599,12.646571 46.992911,19.521477 Z M 30.20958,7.8434385 C 29.053103,10.453958 27.495361,14.493185 26.282127,19.521477 H 20.739679 C 23.997363,12.64595 28.772802,8.8657885 30.20958,7.8434385 Z M 25.476244,23.324863 c -0.490559,2.688139 -0.852827,5.583555 -0.995897,8.640297 h -6.809209 c 0.171758,-3.211733 0.74118,-6.088893 1.571031,-8.640297 z M 13.868746,31.965037 H 7.3393418 c 0.2169638,-3.048298 0.9290821,-5.959238 2.0901547,-8.640299 h 5.8248615 c -0.746519,2.593879 -1.233104,5.480601 -1.385612,8.640299 z m 3.800405,3.803385 h 6.759035 c 0.04322,2.788611 0.277818,5.677571 0.775084,8.640299 H 19.244157 C 18.40735,41.850733 17.835941,38.972829 17.669151,35.768422 Z m 8.321745,12.443685 c 0.932932,3.872683 2.318668,7.830813 4.314933,11.804839 -1.347113,-0.964479 -6.244134,-4.816421 -9.564412,-11.804839 z m 11.432015,11.813407 c 1.998749,-3.976881 3.385726,-7.937866 4.319527,-11.813407 h 5.287483 c -3.310343,7.024059 -8.228353,10.844086 -9.60701,11.813407 z m 5.107278,-15.616793 c 0.497391,-2.962728 0.73199,-5.851688 0.775084,-8.640299 h 6.760277 c -0.163561,3.210243 -0.72578,6.087405 -1.550291,8.640299 z m 11.337753,-8.640299 h 6.526049 c -0.217085,3.048297 -0.929206,5.959361 -2.090277,8.640299 h -5.79903 c 0.741054,-2.594251 1.218077,-5.482961 1.363258,-8.640299 z m -0.0039,-3.803385 c -0.152536,-3.159822 -0.639121,-6.04642 -1.385641,-8.640299 h 5.825607 c 1.161198,2.680937 1.873192,5.591877 2.090157,8.640299 z m 2.395669,-12.44356 h -5.121943 c -1.700066,-4.095112 -3.9164,-7.334541 -6.002083,-9.7411376 4.562448,2.1435576 8.417745,5.5315196 11.124017,9.7411376 z M 22.596476,9.7808358 C 20.511041,12.187433 18.294955,15.426737 16.595013,19.521477 H 11.4737 c 2.706023,-4.209369 6.560949,-7.596959 11.122776,-9.7406412 z M 11.473824,48.212107 h 5.090265 c 1.674359,4.053259 3.859396,7.281884 5.930425,9.691211 -4.517118,-2.146288 -8.33491,-5.513634 -11.02069,-9.691211 z m 33.765866,9.690714 c 2.070533,-2.40908 4.255197,-5.637703 5.929183,-9.690714 h 5.090638 c -2.685532,4.177326 -6.503075,7.544426 -11.019821,9.690714 z"
       id="path48"
       style="stroke-width:0.124192;fill:#ffffff;fill-opacity:1;stroke:none" />
  </g>
</svg>
