<?xml version="1.0" encoding="UTF-8"?>
<svg class="icon" width="800px" height="800px" version="1.1" viewBox="0 0 1024 1024" xmlns="http://www.w3.org/2000/svg">
<path d="m620.85 261.08c-15.141-0.39699-30.01 7.2988-38.122 21.35-11.8 20.438-4.8082 46.53 15.63 58.33l87.555 50.55v283.78l-87.555 50.55c-20.438 11.8-27.43 37.892-15.63 58.33 8.1125 14.051 22.981 21.747 38.122 21.35 6.8824-0.18045 13.821-2.0325 20.208-5.72l87.555-50.55 87.555 50.55c6.3869 3.6875 13.325 5.5396 20.208 5.72 15.141 0.39699 30.01-7.2988 38.122-21.35 11.8-20.438 4.8082-46.53-15.63-58.33l-87.555-50.55v-283.78l87.555-50.55c20.438-11.8 27.43-37.892 15.63-58.33-8.1125-14.051-22.981-21.747-38.122-21.35-6.8824 0.18045-13.821 2.0325-20.208 5.72l-87.555 50.55-87.555-50.55c-6.3869-3.6875-13.325-5.5396-20.208-5.72z" fill="#5f6379"/>
<path d="M894.8 938.6H129.4c-71.3 0-129.4-58-129.4-129.4v-552c0-71.3 58-129.4 129.4-129.4h765.4c71.3 0 129.4 58 129.4 129.4v552.1c0 71.3-58.1 129.3-129.4 129.3zM129.4 213.2c-24.3 0-44 19.8-44 44v552.1c0 24.3 19.8 44 44 44h765.4c24.3 0 44-19.8 44-44V257.2c0-24.3-19.8-44-44-44H129.4z" fill="#3688FF"/>
</svg>
