<?xml version="1.0" encoding="UTF-8"?>
<svg width="200" height="200" version="1.1" viewBox="0 0 52.917 52.917" xmlns="http://www.w3.org/2000/svg">
  <g transform="translate(0 -244.08)">
    <path transform="matrix(.26458 0 0 .26458 0 244.08)" d="m100 5c-52.526 0-95 42.474-95 95v87.93l20-20 25 25 25-25 25 25 25-25 25 25 25-25 20 20v-87.93c0-52.526-42.474-95-95-95z" fill="#fff" fill-opacity=".85"/>
    <path transform="matrix(.26458 0 0 .26458 0 244.08)" d="m100 0a100 100 0 0 0-100 100v100l25-25 25 25 25-25 25 25 25-25 25 25 25-25 25 25v-100a100 100 0 0 0-100-100zm0 10c49.824 0 90 40.176 90 90v75.857l-15-15-25 25.002-25-25.002-25 25.002-25-25.002-25 25.002-25-25.002-15 15v-75.857c-4e-7 -49.824 40.176-90 90-90z" fill="#f00"/>
    <circle cx="14.386" cy="264.54" r="2.4568" fill="#f00" stroke="#f00" stroke-width="2.6458"/>
    <circle cx="38.531" cy="264.54" r="2.4568" fill="#f00" stroke="#f00" stroke-width="2.6458"/>
  </g>
</svg>
