<?xml version="1.0" encoding="UTF-8"?>
<svg width="200" height="200" version="1.1" viewBox="0 0 52.917 52.917" xmlns="http://www.w3.org/2000/svg">
  <g transform="translate(0 -244.08)">
    <circle cx="26.458" cy="270.54" r="25.135" fill-opacity=".85" stroke="#f00" fill="#fff" stroke-width="2.6458"/>
    <path transform="matrix(.26458 0 0 .26458 0 244.08)" d="m100 125.72c-21.219 0-40.905 6.635-57.104 17.936a71.929 71.929 0 0 0 6.625 7.5059c14.389-9.7522 31.759-15.447 50.479-15.447 18.731 0 36.11 5.7021 50.504 15.465a71.929 71.929 0 0 0 6.5664-7.5449c-16.191-11.287-35.865-17.914-57.07-17.914z" color="#000000" color-rendering="auto" dominant-baseline="auto" fill="#f00" image-rendering="auto" shape-rendering="auto" solid-color="#000000" style="font-feature-settings:normal;font-variant-alternates:normal;font-variant-caps:normal;font-variant-ligatures:normal;font-variant-numeric:normal;font-variant-position:normal;isolation:auto;mix-blend-mode:normal;shape-padding:0;text-decoration-color:#000000;text-decoration-line:none;text-decoration-style:solid;text-indent:0;text-orientation:mixed;text-transform:none;white-space:normal"/>
    <path d="m12.286 258.07 9.4494 9.4494" fill-opacity="0" stroke="#f00" stroke-width="2.6458"/>
    <path d="m21.735 258.07-9.4494 9.4494" fill-opacity="0" stroke="#f00" stroke-width="2.6458"/>
    <path d="m31.174 258.07 9.4494 9.4494" fill-opacity="0" stroke="#f00" stroke-width="2.6458"/>
    <path d="m40.623 258.07-9.4494 9.4494" fill-opacity="0" stroke="#f00" stroke-width="2.6458"/>
  </g>
</svg>
