<?xml version="1.0" encoding="UTF-8"?>
<svg class="icon" width="800px" height="800px" version="1.1" viewBox="0 0 1024 1024" xmlns="http://www.w3.org/2000/svg">
<path d="M809.3 1024H214.7c-71.3 0-129.4-58-129.4-129.4V129.4C85.3 58 143.4 0 214.7 0h594.6c71.3 0 129.4 58 129.4 129.4v765.3c0 71.3-58.1 129.3-129.4 129.3zM214.7 85.3c-24.3 0-44 19.8-44 44v765.3c0 24.3 19.8 44 44 44h594.6c24.3 0 44-19.8 44-44V129.4c0-24.3-19.8-44-44-44H214.7z" fill="#3688FF"/>
<path d="m434.85 341.3c-7.375 0-14.75 1.9-21.35 5.7-13.2 7.7-21.3 21.8-21.3 37v261.5c0 15.3 8.1 29.4 21.3 37 6.6 3.8 13.9 5.7 21.3 5.7s14.7-1.8 21.3-5.7l226.6-130.7c13.2-7.7 21.3-21.8 21.3-37 0-15.3-8.1-29.4-21.3-37l-226.5-130.8c-6.6-3.8-13.975-5.7-21.35-5.7z" fill="#5f6379"/>
</svg>
