<?xml version="1.0" encoding="UTF-8"?>
<svg class="icon" width="800px" height="800px" version="1.1" viewBox="0 0 1024 1024" xmlns="http://www.w3.org/2000/svg">
<path d="M809.3 1024H214.7c-71.3 0-129.4-58-129.4-129.4V129.4C85.3 58 143.4 0 214.7 0h594.6c71.3 0 129.4 58 129.4 129.4v765.3c0 71.3-58.1 129.3-129.4 129.3zM214.7 85.3c-24.3 0-44 19.8-44 44v765.3c0 24.3 19.8 44 44 44h594.6c24.3 0 44-19.8 44-44V129.4c0-24.3-19.8-44-44-44H214.7z" fill="#3688FF"/>
<path d="m509.63 324.4c-8.885 0.055-17.755 2.455-25.815 7.195l-45.08 30.56c-29.24 19.88-63.32 30.36-98.64 30.36-28.48 0-51.68 23.2-51.68 51.72v135.52c0 28.48 23.16 51.68 51.68 51.68 35.32 0 69.44 10.52 98.64 30.36l44.12 30 0.96 0.6c8.16 4.8 17.12 7.2 26.12 7.2 8.8 0 17.56-2.28 25.6-6.88 16.24-9.32 25.96-26.04 25.96-44.76v-271.92c0-18.72-9.72-35.44-25.96-44.76-8.12-4.64-17.02-6.93-25.905-6.875zm-14.608 334.36h0.715v0.4875l-0.715-0.4875z" fill="#5f6379"/>
<path d="m629.4 634c-3.28 0-6.6-0.96-9.52-2.92-7.8-5.28-9.88-15.88-4.6-23.68 6.2-9.16 11.48-18.92 15.76-29 4.36-10.28 7.68-21.04 9.92-32 2.32-11.24 3.48-22.84 3.48-34.4 0-11.6-1.16-23.16-3.48-34.4-2.24-10.96-5.6-21.72-9.92-32-4.28-10.08-9.56-19.84-15.76-29-5.28-7.8-3.2-18.4 4.6-23.68s18.4-3.2 23.68 4.6c7.4 10.96 13.76 22.68 18.88 34.8 5.24 12.36 9.24 25.32 11.92 38.48 2.76 13.48 4.16 27.36 4.16 41.24s-1.4 27.76-4.16 41.24c-2.68 13.16-6.72 26.08-11.92 38.48-5.12 12.08-11.48 23.8-18.88 34.8-3.28 4.8-8.64 7.44-14.16 7.44z" fill="#5f6379"/>
<path d="m713.91 634c-3.28 0-6.6-0.96-9.52-2.92-7.8-5.28-9.88-15.88-4.6-23.68 6.2-9.16 11.48-18.92 15.76-29 4.36-10.28 7.68-21.04 9.92-32 2.32-11.24 3.48-22.84 3.48-34.4 0-11.6-1.16-23.16-3.48-34.4-2.24-10.96-5.6-21.72-9.92-32-4.28-10.08-9.56-19.84-15.76-29-5.28-7.8-3.2-18.4 4.6-23.68s18.4-3.2 23.68 4.6c7.4 10.96 13.76 22.68 18.88 34.8 5.24 12.36 9.24 25.32 11.92 38.48 2.76 13.48 4.16 27.36 4.16 41.24s-1.4 27.76-4.16 41.24c-2.68 13.16-6.72 26.08-11.92 38.48-5.12 12.08-11.48 23.8-18.88 34.8-3.28 4.8-8.64 7.44-14.16 7.44z" fill="#5f6379"/>
</svg>
