<?xml version="1.0" encoding="UTF-8"?>
<svg class="icon" width="800px" height="800px" version="1.1" viewBox="0 0 1024 1024" xmlns="http://www.w3.org/2000/svg">
<path d="m512 1024c-282.3 0-512-229.7-512-512-7.7782e-6 -282.3 229.7-512 512-512 282.3-3.5355e-6 512 229.7 512 512 0 282.3-229.7 512-512 512zm0-938.7c-235.3-1e-5 -426.7 191.4-426.7 426.7 8e-6 235.3 191.4 426.7 426.7 426.7 235.3 1e-5 426.7-191.4 426.7-426.7 0-235.3-191.4-426.7-426.7-426.7z" fill="#3688ff"/>
<path d="m843.7 137.56c-10.912 0-21.838 4.175-30.188 12.525l-663.42 663.42c-16.7 16.6-16.7 43.6 0 60.3 8.4 8.3 19.3 12.5 30.2 12.5 10.9-2e-5 21.8-4.1 30.2-12.5l210.1-210.19c0.29879-0.28238 0.61718-0.52968 0.91-0.8225l210.1-210.19c0.29879-0.28238 0.61718-0.52968 0.91-0.8225l241.3-241.4c16.7-16.6 16.7-43.6 0-60.3-8.3-8.35-19.2-12.525-30.112-12.525z" fill="#5f6379"/>
</svg>
