<?xml version="1.0" encoding="utf-8"?>
<!-- Uploaded to: SVG Repo, www.svgrepo.com, Generator: SVG Repo Mixer Tools -->
<svg width="800px" height="800px" viewBox="0 0 1024 1024" class="icon"  version="1.1" xmlns="http://www.w3.org/2000/svg"><path d="M809.3 1024H214.7c-71.3 0-129.4-58-129.4-129.4V129.4C85.3 58 143.4 0 214.7 0h594.6c71.3 0 129.4 58 129.4 129.4v765.3c0 71.3-58.1 129.3-129.4 129.3zM214.7 85.3c-24.3 0-44 19.8-44 44v765.3c0 24.3 19.8 44 44 44h594.6c24.3 0 44-19.8 44-44V129.4c0-24.3-19.8-44-44-44H214.7z" fill="#3688FF" /></svg>
