<?xml version="1.0" encoding="UTF-8"?>
<svg class="icon" width="800px" height="800px" version="1.1" viewBox="0 0 1024 1024" xmlns="http://www.w3.org/2000/svg">
<path d="M809.3 1024H214.7c-71.3 0-129.4-58-129.4-129.4V129.4C85.3 58 143.4 0 214.7 0h594.6c71.3 0 129.4 58 129.4 129.4v765.3c0 71.3-58.1 129.3-129.4 129.3zM214.7 85.3c-24.3 0-44 19.8-44 44v765.3c0 24.3 19.8 44 44 44h594.6c24.3 0 44-19.8 44-44V129.4c0-24.3-19.8-44-44-44H214.7z" fill="#3688FF"/>
<path d="m120.89 832c-11.418 0-22.669-6.6-29.503-18.8-11.001-19.5-6.6674-46.1 9.5844-59.2l313.37-253.4c28.67-23.2 64.673-20.3 87.593 7.1l84.342 100.7c0.16669-0.1 0.33337-0.3 0.50006-0.4l294.86-268.5c15.668-14.2 37.921-10.6 49.839 8.2 11.835 18.8 8.8343 45.5-6.8341 59.8l-294.86 268.3c-28.836 26.3-67.174 24.6-91.176-4l-84.259-100.7c-0.0833 0.1-0.16668 0.1-0.25003 0.2l-313.37 253.4c-6.084 4.9-13.001 7.3-19.835 7.3z" fill="#5f6379"/>
<path d="m312.04 221.63m-64 0a64 64 0 1 0 128 0 64 64 0 1 0-128 0z" fill="#5f6379"/>
</svg>
