<?xml version="1.0" encoding="UTF-8"?>
<svg class="icon" width="800px" height="800px" version="1.1" viewBox="0 0 1024 1024" xml:space="preserve" xmlns="http://www.w3.org/2000/svg"><path d="m131.9 50.763c-72.7 0-131.9 59.2-131.9 131.9v442.28c0 72.7 59.2 131.9 131.9 131.9h760.2c72.7 0 131.9-59.2 131.9-131.9v-442.28c0-72.7-59.2-131.9-131.9-131.9zm0 85.4h760.2c25.6 0 46.5 20.8 46.5 46.5v442.28c0 25.6-20.8 46.5-46.5 46.5h-760.2c-25.6 0-46.5-20.8-46.5-46.5v-442.28c0-25.6 20.8-46.5 46.5-46.5z" fill="#3688ff"/><path d="m407.98 814.96-45.65 79.065h-149.03c-23.6 0-42.7 19.1-42.7 42.7s19.1 42.7 42.7 42.7h597.4c23.5 0 42.6-19.1 42.6-42.7s-19.1-42.7-42.7-42.7h-148.92l-45.65-79.065z" fill="#3688ff"/><path d="m268.12 181.87c-10.916 9e-3 -21.841 4.1812-30.185 12.525-16.688 16.688-16.688 43.7 0 60.388l26.818 26.818-26.82 26.822c-16.688 16.688-16.688 43.697 0 60.385s43.7 16.688 60.388 0l26.82-26.82 26.822 26.822c16.688 16.688 43.7 16.688 60.388 0s16.688-43.7 0-60.388l-26.822-26.822 26.89-26.89c16.617-16.617 16.618-43.63-0.07-60.318-16.688-16.688-43.7-16.688-60.388 0l-26.82 26.82-26.89-26.888c-8.3085-8.3085-19.214-12.464-30.13-12.455z" fill="#5f6379"/><path d="m755.88 181.87c10.916 9e-3 21.841 4.1812 30.185 12.525 16.688 16.688 16.688 43.7 0 60.388l-26.818 26.818 26.82 26.822c16.688 16.688 16.688 43.697 0 60.385s-43.7 16.688-60.388 0l-26.82-26.82-26.822 26.822c-16.688 16.688-43.7 16.688-60.388 0s-16.688-43.7 0-60.388l26.822-26.822-26.89-26.89c-16.617-16.617-16.618-43.63 0.07-60.318 16.688-16.688 43.7-16.688 60.388 0l26.82 26.82 26.89-26.888c8.3085-8.3085 19.214-12.464 30.13-12.455z" fill="#5f6379"/><path d="m512 444.98c-84.37 0-162.84 47.156-217.57 123.55a42.7 42.7 0 0 0 9.8398 59.58 42.7 42.7 0 0 0 59.58-9.8418c42.262-58.987 95.349-87.889 148.15-87.889 52.803 0 105.89 28.902 148.15 87.889a42.7 42.7 0 0 0 59.58 9.8418 42.7 42.7 0 0 0 9.8418-59.58c-54.734-76.395-133.2-123.55-217.57-123.55z" color="#000000" fill="#5f6379" style="-inkscape-stroke:none"/></svg>
