<?xml version="1.0" encoding="UTF-8"?>
<svg class="icon" width="800px" height="800px" version="1.1" viewBox="0 0 1024 1024" xml:space="preserve" xmlns="http://www.w3.org/2000/svg"><path d="m142.28 215.38-42.67 73.908c14.63 9.0178 30.191 17.507 46.718 25.318 100.04 47.278 230.02 72.105 365.68 72.105s265.64-24.827 365.68-72.105c16.527-7.8103 32.087-16.3 46.718-25.318l-42.67-73.908c-12.011 7.5454-25.446 14.941-40.515 22.062-84.253 39.816-204.23 63.92-329.21 63.92s-244.96-24.104-329.21-63.92c-15.069-7.1212-28.504-14.517-40.515-22.062z" color="#000000" fill="#5f6379" stroke-linecap="round" stroke-linejoin="round" style="-inkscape-stroke:none"/><path d="m142.28 808.62-42.67-73.908c14.63-9.0178 30.191-17.507 46.718-25.318 100.04-47.278 230.02-72.105 365.68-72.105s265.64 24.827 365.68 72.105c16.527 7.8103 32.087 16.3 46.718 25.318l-42.67 73.908c-12.011-7.5454-25.446-14.941-40.515-22.062-84.253-39.816-204.23-63.92-329.21-63.92s-244.96 24.104-329.21 63.92c-15.069 7.1212-28.504 14.517-40.515 22.062z" color="#000000" fill="#5f6379" stroke-linecap="round" stroke-linejoin="round" style="-inkscape-stroke:none"/><path d="m383.48 51.2c-30.986 27.564-58.181 64.514-80.52 108.03-49.566 96.56-75.575 221.96-75.575 352.77s26.009 256.21 75.575 352.77c22.339 43.519 49.534 80.469 80.52 108.03h257.04c30.986-27.564 58.181-64.514 80.52-108.03 49.566-96.56 75.575-221.96 75.575-352.77s-26.009-256.21-75.575-352.77c-22.339-43.519-49.534-80.469-80.52-108.03h-257.04zm128.52 32.145c42.151-3e-6 91.936 34.643 133.12 114.86 41.179 80.222 66.155 194.59 66.155 313.79s-24.976 233.57-66.155 313.79c-41.179 80.222-90.964 114.86-133.12 114.86s-91.936-34.643-133.12-114.86c-41.179-80.222-66.155-194.59-66.155-313.79s24.976-233.57 66.155-313.79c41.179-80.222 90.964-114.87 133.12-114.86z" color="#000000" fill="#5f6379" stroke-linecap="round" stroke-linejoin="round" style="-inkscape-stroke:none"/><rect x="25.6" y="469.33" width="972.8" height="85.348" fill="#5f6379"/><rect transform="rotate(90)" x="25.6" y="-554.67" width="972.8" height="85.348" fill="#5f6379"/><path d="m512 1024c282.3 0 512-229.7 512-512s-229.7-512-512-512-512 229.7-512 512 229.7 512 512 512zm0-938.7c235.3 0 426.7 191.4 426.7 426.7s-191.4 426.7-426.7 426.7-426.7-191.4-426.7-426.7 191.4-426.7 426.7-426.7z" fill="#3688ff"/></svg>
